<svg xmlns="http://www.w3.org/2000/svg" viewBox="0 0 396.72 396.72" xmlns:v="https://vecta.io/nano"><defs><linearGradient id="A" x1="34.34" y1="198.36" x2="362.39" y2="198.36" gradientUnits="userSpaceOnUse"><stop offset="0" stop-color="#e1963a"/><stop offset="1" stop-color="#d35731"/></linearGradient></defs><rect x="34.33" y="34.33" width="328.05" height="328.05" rx="51.96" transform="matrix(.92388 .382683 -.382683 .92388 91.01 -60.81)" fill="url(#A)"/><rect x="29.16" y="29.16" width="338.41" height="338.41" rx="100" fill="#272740"/><g fill="#fff"><path d="M233.75 255.96h20.79v.01h-20.79z"/><path d="M273.75 159.9A19.21 19.21 0 0 1 293 179.11V256a38.43 38.43 0 0 1-38 38.39h-23.52L216.11 256h38.43v-76.89a19.21 19.21 0 0 1 19.21-19.21z"/><path d="M200.74,217.54,216.11,256H131.58l-15.37,38.41h0a26,26,0,0,1-24.16-35.67l1.1-2.74,15.37-38.43,39-97.44a28.36,28.36,0,0,1,26.34-17.84h0a28.37,28.37,0,0,1,26.35,17.84l39,97.44H200.74l-26.9-67.25L147,217.54Z"/><rect x="254.54" y="102.26" width="38.42" height="38.42" rx="19.21"/><path d="M255,294.39h0Z"/></g></svg>