<svg xmlns="http://www.w3.org/2000/svg" viewBox="0 0 100 100"><title>GoogleAnalytics</title><path d="M62.55,21v52.6c0,5.89,4.06,9.17,8.37,9.17,4,0,8.37-2.79,8.37-9.17V21.43a8.38,8.38,0,0,0-8.37-8.76A8.51,8.51,0,0,0,62.55,21Z" style="fill:#fff"/><path d="M40.63,47.74v25.9c0,5.89,4.06,9.17,8.37,9.17,4,0,8.37-2.79,8.37-9.17V48.14A8.38,8.38,0,0,0,49,39.37a8.51,8.51,0,0,0-8.37,8.37Z" style="fill:#fff"/><path d="M35.45,74.44a8.37,8.37,0,1,1-8.37-8.37,8.37,8.37,0,0,1,8.37,8.37" style="fill:#fff"/></svg>