<svg xmlns="http://www.w3.org/2000/svg" viewBox="0 0 100 100"><title>Node.js</title><path d="M50,79.67a4.8,4.8,0,0,1-2.29-.6l-7.25-4.31c-1.09-.6-.54-.82-.22-.93a13.18,13.18,0,0,0,3.27-1.47.51.51,0,0,1,.55.06l5.56,3.32a.68.68,0,0,0,.65,0L72,63.15a.63.63,0,0,0,.33-.6V37.42a.63.63,0,0,0-.33-.6L50.27,24.29a.68.68,0,0,0-.65,0L27.87,36.82a.68.68,0,0,0-.33.6V62.55a.68.68,0,0,0,.33.6l5.94,3.43C37,68.22,39,66.31,39,64.4V39.6A.67.67,0,0,1,39.7,39h2.78a.65.65,0,0,1,.65.65V64.4c0,4.31-2.34,6.82-6.43,6.82-1.25,0-2.23,0-5-1.37L26,66.58a4.6,4.6,0,0,1-2.29-4V37.48a4.61,4.61,0,0,1,2.29-4L47.71,20.91a4.83,4.83,0,0,1,4.58,0L74,33.5a4.61,4.61,0,0,1,2.29,4V62.6a4.6,4.6,0,0,1-2.29,4L52.29,79.17a5.56,5.56,0,0,1-2.29.5Zm6.7-17.28c-9.53,0-11.5-4.36-11.5-8.07a.66.66,0,0,1,.66-.65h2.83a.55.55,0,0,1,.6.54c.44,2.89,1.69,4.31,7.47,4.31,4.58,0,6.54-1,6.54-3.49,0-1.42-.55-2.45-7.69-3.16C49.67,51.27,46,50,46,45.22c0-4.42,3.7-7,9.92-7,7,0,10.41,2.39,10.84,7.63a.89.89,0,0,1-.16.49.67.67,0,0,1-.44.22H63.3a.64.64,0,0,1-.6-.5c-.65-3-2.34-4-6.81-4-5,0-5.62,1.74-5.62,3,0,1.58.71,2.07,7.47,2.94s9.87,2.13,9.87,6.81-4,7.53-10.91,7.53Z" style="fill:#fff"/></svg>