<svg xmlns="http://www.w3.org/2000/svg" viewBox="0 0 100 100"><title>PostgreSQL</title><path d="M49,65.62c-.26,9.07.06,18.21.95,20.43s2.79,6.54,9.33,5.14c5.46-1.17,7.45-3.44,8.31-8.44.63-3.68,1.86-13.9,2-16" style="fill:none;stroke:#fff;stroke-linecap:round;stroke-linejoin:round;stroke-width:2px"/><path d="M41.12,20.14S11.53,8,12.9,35.55c.3,5.85,8.39,44.28,18,32.67,3.53-4.24,6.72-7.57,6.72-7.57" style="fill:none;stroke:#fff;stroke-linecap:round;stroke-linejoin:round;stroke-width:2px"/><path d="M57.11,17.93c-1,.32,16.46-6.39,26.4,6.31C87,28.72,83,47.05,73.22,61.49" style="fill:none;stroke:#fff;stroke-linecap:round;stroke-linejoin:round;stroke-width:2px"/><path d="M73.22,61.49s.64,3.12,9.85,1.22c4-.83,1.61,2.34-2.49,4.24-3.36,1.56-10.89,2-11-.19-.31-5.56,4-3.87,3.66-5.27S71,59,69.76,55.93c-1.11-2.68-15.17-23.24,3.9-20.18.7-.15-5-18.15-22.82-18.44s-17.26,22-17.26,22" style="fill:none;stroke:#fff;stroke-linecap:round;stroke-linejoin:bevel;stroke-width:2px"/><path d="M44,63.4c-2.48,2.77-1.75,3.26-6.73,4.29s-2.07,2.88-.14,3.36c2.34.59,7.75,1.42,11.41-3.71,1.11-1.55,0-4-1.54-4.68a2.26,2.26,0,0,0-3,.74Z" style="fill:none;stroke:#fff;stroke-linecap:round;stroke-linejoin:round;stroke-width:2px"/><path d="M43.8,63.35c-.25-1.64.54-3.58,1.38-5.86,1.27-3.41,4.2-6.82,1.86-17.65-1.75-8.07-13.45-1.68-13.46-.58A54.78,54.78,0,0,1,33.38,50c-.94,6.77,4.31,12.49,10.35,11.9" style="fill:none;stroke:#fff;stroke-linecap:round;stroke-linejoin:round;stroke-width:2px"/><path d="M41,39.09c-.06.38.68,1.37,1.64,1.51a1.78,1.78,0,0,0,1.83-1c0-.38-.68-.79-1.64-.92s-1.78.06-1.83.43Z" style="fill:#fff;stroke:#fff"/><path d="M70.23,38.33c0,.37-.69,1.37-1.65,1.5a1.76,1.76,0,0,1-1.83-1c0-.38.68-.79,1.64-.92s1.79.06,1.84.43Z" style="fill:#fff;stroke:#fff"/><path d="M73.66,35.75c.16,2.93-.63,4.92-.73,8-.15,4.54,2.16,9.73-1.32,14.92" style="fill:none;stroke:#fff;stroke-linecap:round;stroke-linejoin:round;stroke-width:2px"/></svg>